<svg xmlns="http://www.w3.org/2000/svg" width="377.756" height="301.431" viewBox="0 0 377.756 301.431">
  <g id="Grupo_380" data-name="Grupo 380" transform="translate(-280.843 -122.983)">
    <g id="Grupo_379" data-name="Grupo 379">
      <path id="Trazado_387" data-name="Trazado 387" d="M627.114,417.683h-342.9a3.367,3.367,0,0,0-3.366,3.366h0a3.366,3.366,0,0,0,3.366,3.365h342.9a3.365,3.365,0,0,0,3.365-3.365h0A3.365,3.365,0,0,0,627.114,417.683Z" fill="#a5c86c"/>
      <g id="Grupo_337" data-name="Grupo 337">
        <g id="Grupo_304" data-name="Grupo 304">
          <path id="Trazado_388" data-name="Trazado 388" d="M564.864,350.139c.579-5.412,2.481-10.144,7.878-13.495,5.284-3.28,11.408-5.125,17.59-6.283,11.833-2.216,29.315-3.149,38.571,5.7,15.158,14.491-22.455,1.142-31.91,46.968s17.768-3.778,48.372,6.391c28.5,9.469-18.74-3.314-22.708,25.531v3.078h-59.59c-13.654,0-29.372.4-41.358-6.426-2.957-1.684-5.574-3.829-8.361-5.746-6.439-4.429-13.742-7.612-20.987-10.77-4.4-1.918-8.949-3.942-12.069-7.419s-4.391-8.851-1.613-12.574c3.062-4.1,9.275-4.508,14.624-4.516l11.929-.02a89.452,89.452,0,0,1,12.894.6c5.64.81,11.033,2.685,16.539,4.089s11.322,2.34,16.9,1.231,10.9-4.631,12.564-9.733c1.017-3.119.611-6.461.534-9.722A53.445,53.445,0,0,1,564.864,350.139Z" fill="#284d3b"/>
          <path id="Trazado_389" data-name="Trazado 389" d="M432.173,307.648q.819.555,1.612,1.16c4.218,3.222,8.947,5.85,12.7,9.489q7.088,6.873,14.175,13.742c6.719,6.513,6.88,8.933,8.423,17.862,11.2,64.823,14.218-10.127,45.854-4.947,29.458,4.822-18.124.78-9.3,41.023l1.319,4.175-16.241,5.129q-18.438,5.824-36.873,11.646c-3.806,1.2-7.776,1.721-11.562,2.831-3.728,1.094-6.646,3.454-10.743,3.651a13.583,13.583,0,0,1-9.939-3.731c-4.27-4.107-4.645-9.6-7.191-14.579a63.918,63.918,0,0,0-18.708-22.135c-3.159-2.347-5.984-5.172-9.564-6.921A41.06,41.06,0,0,1,372.6,355.029c-.928-1.166-1.8-2.726-1.155-4.068a3.669,3.669,0,0,1,2.012-1.612c3.387-1.417,7.234-1.156,10.858-.552a63.355,63.355,0,0,1,29.958,13.731c2.037,1.7,4.389,3.65,6.995,3.168,2.644-.488,4.231-3.461,4.091-6.146s-1.559-5.115-2.981-7.4q-5.448-8.74-11.726-16.927c-1.929-2.513-3.845-5.472-6.261-7.508-2.518-2.121-5.39-3.893-7.981-5.941a50.7,50.7,0,0,0-9.115-5.825c-2.6-1.272-5.743-1.812-8.2-3.326-4.924-3.034-4.648-8.359.642-10.618a72.53,72.53,0,0,1,7.666-2.771,29.457,29.457,0,0,1,7.57-1.419,36.919,36.919,0,0,1,6.185.52C411.94,299.86,423.222,301.582,432.173,307.648Z" fill="#284d3b"/>
          <path id="Trazado_390" data-name="Trazado 390" d="M462.365,318.869a17.779,17.779,0,0,1-.284-2.2c-.163-2.61-1.994-5.207-3.038-7.839-1.073-2.708-1.93-5.443-2.782-8.173-1.651-5.313-3.262-10.74-6.218-15.806A48.729,48.729,0,0,0,436.835,270.6a86.876,86.876,0,0,0-16.182-9.114A96.826,96.826,0,0,0,401.3,254.7a10.082,10.082,0,0,0-3.326-.295c-2.92.387-4.513,3.362-4.456,6.645s3.52,9.814,5.194,13.1c2.031,3.993,13.222-.83,16.029,2.746,1.473,1.878-14.487.321-12.841,2.036,1.356,1.411,9.65,11.441,10.988,12.781,3.2,3.2,6.121,8.029,8.612,11.8a72.58,72.58,0,0,1,6.974,12.954c1.953,4.906,3.1,9.968,5.568,14.743a16.049,16.049,0,0,0,3.515,4.8,10.981,10.981,0,0,0,7.644,2.546c5.048-.175,9.08-2.863,12.591-5.893a48.41,48.41,0,0,0,4.8-4.72,4.056,4.056,0,0,0,1.2-2.28,6.977,6.977,0,0,0-.34-2.319C463.064,321.822,462.642,320.339,462.365,318.869Z" fill="#4b9074"/>
          <path id="Trazado_391" data-name="Trazado 391" d="M552.038,418.029h26.513c7.842,0,18.674-6.221,24.2-12.311,17.776-19.57,38.948-24.6,43.757-25.209,4.668-.59,10.6-1.338,11.875-5.867a8.256,8.256,0,0,0-.7-5.42c-3.548-8.2-16.852-11.664-24.948-13a53.443,53.443,0,0,0-31.827,4.4c-6.436,3.121-11.374.511-11.28-7.191.1-7.822,5.329-15.886,10.606-21.239a34.691,34.691,0,0,0,9.808-21.1,1.689,1.689,0,0,0-.263-1.319,1.718,1.718,0,0,0-1.063-.4l-9.808-1.33c2.794-1.671,5.49-2.4,8.492-3.594a2.2,2.2,0,0,0,.843-.5,1.807,1.807,0,0,0,.322-.579c.778-2.044.647-4.741.89-6.9.545-4.806,2.6-16.949-3.315-19.528-2.11-.919-4.642.128-6.225,1.8-2.235,2.366-3.063,5.18-4.613,7.91-1.644,2.895-4.382,5.134-6.8,7.522a7.615,7.615,0,0,0-2.985,6.828q-.159,6.2-.314,12.4-3.129-6.242-6.26-12.486c-.336-.671-12.272,11.8-13.179,13.076-3.565,5.008-7.063,11.16-7.891,17.347-1.532,11.454-2.9,22.594-5.64,33.963-1.714,7.121-.611,14.487-.114,21.706C552.244,388.7,553.316,418.029,552.038,418.029Z" fill="#4b9074"/>
          <path id="Trazado_392" data-name="Trazado 392" d="M615.586,413.112c4.029-4.633,10.865-5.254,16.964-6.033a3.779,3.779,0,0,0,1.876-.593,2.557,2.557,0,0,0,.491-3.1,6.1,6.1,0,0,0-2.432-2.312,21.685,21.685,0,0,0-12.138-3.114c-2.31.1-5.137.347-6.408-1.586a5.372,5.372,0,0,1-.629-3.022c.072-10.577,12.405-13.41,20.041-17.288a19.038,19.038,0,0,0,5.616-3.753,6.462,6.462,0,0,0,1.7-6.239c-1.2-3.475-5.73-4.338-9.386-3.975a36.881,36.881,0,0,0-10.236,2.63,21.765,21.765,0,0,0-7.463,4.636,41.87,41.87,0,0,0-4.562,6.359,45.416,45.416,0,0,1-5.3,6.533,4.886,4.886,0,0,1-2.285,1.544,3.517,3.517,0,0,1-3.653-2.127,10.292,10.292,0,0,1-.693-4.469c-.044-8.671-.646-17.225-.574-25.879.023-2.6.015-5.123-.076-7.527-.226-5.918-.965-11.092-3.063-14.755a16.781,16.781,0,0,0-6.838-6.871c-4.6-2.423-11.393-3.442-14.992,6.233-5.892,15.845,8.729,1.249,12.4,51.355s-6.906-4.13-18.8,6.99c-11.077,10.353,7.284-3.625,8.826,27.916v3.364h23.163c3.514,0,7.055.23,10.6.213a8.681,8.681,0,0,0,3.319-.45c2-.835,3.058-2.976,4.47-4.622C615.553,413.15,615.569,413.13,615.586,413.112Z" fill="#a5c86c"/>
          <path id="Trazado_393" data-name="Trazado 393" d="M452.838,418.029H426.324c-7.842,0-18.673-4.335-24.205-8.578-17.776-13.638-38.948-17.143-43.756-17.567-4.668-.412-10.6-.931-11.876-4.089a4.22,4.22,0,0,1,.7-3.775c3.549-5.719,16.853-8.129,24.947-9.059a74.689,74.689,0,0,1,31.829,3.068c6.435,2.175,11.374.356,11.279-5.011-.1-5.451-5.329-11.069-10.606-14.8-5.549-3.924-9.118-9.207-9.808-14.7a.9.9,0,0,1,.263-.92,2.2,2.2,0,0,1,1.064-.281l9.807-.926c-1.376.13-4.175-1.373-5.6-1.748-1.343-.354-3.15-.29-4.218-1.227a14.265,14.265,0,0,1-1.811-2.322c-1.843-2.457-4.727-3.916-6.821-6.165-1.011-1.087-1.857-2.683-1.18-4.007.691-1.351,2.5-1.569,4.019-1.613a53.661,53.661,0,0,1,14.57,1.364c5.293,1.269,9.821,4.543,14.2,7.781.423.313.279,4.372.3,5q.122,3.337.243,6.678,3.131-4.35,6.259-8.7c.336-.466,12.273,8.224,13.179,9.112,3.565,3.49,7.064,7.777,7.891,12.089,1.533,7.981,2.9,15.743,5.64,23.666,1.715,4.962.611,10.1.114,15.125C452.631,397.589,451.559,418.029,452.838,418.029Z" fill="#a5c86c"/>
        </g>
        <g id="Grupo_330" data-name="Grupo 330">
          <g id="Grupo_328" data-name="Grupo 328">
            <path id="Rectángulo_131" data-name="Rectángulo 131" d="M14.275,0H134.358a14.275,14.275,0,0,1,14.275,14.275V275.191a14.274,14.274,0,0,1-14.274,14.274H14.274A14.274,14.274,0,0,1,0,275.191V14.275A14.275,14.275,0,0,1,14.275,0Z" transform="translate(429.488 128.567)" fill="#2d2e30"/>
            <path id="Rectángulo_132" data-name="Rectángulo 132" d="M14.275,0H128.093a14.274,14.274,0,0,1,14.274,14.274V269.705a14.275,14.275,0,0,1-14.275,14.275H14.275A14.275,14.275,0,0,1,0,269.705V14.275A14.275,14.275,0,0,1,14.275,0Z" transform="translate(432.622 131.31)" fill="#666" opacity="0.6"/>
            <path id="Trazado_394" data-name="Trazado 394" d="M556.463,135.519H532.841v5.629a5.735,5.735,0,0,1-5.692,5.773H478.568a5.734,5.734,0,0,1-5.692-5.773v-5.629h-21.73a14.92,14.92,0,0,0-14.793,15V396.074a14.921,14.921,0,0,0,14.793,15H556.463a14.92,14.92,0,0,0,14.793-15V150.523A14.919,14.919,0,0,0,556.463,135.519Z" fill="#fff"/>
            <text id="OPEN" transform="translate(480.793 239.408)" fill="#eb776a" font-size="15.298" font-family="Montserrat-Bold, Montserrat" font-weight="700"><tspan x="0" y="0">OPEN</tspan></text>
            <g id="Grupo_327" data-name="Grupo 327">
              <g id="Grupo_307" data-name="Grupo 307">
                <g id="Grupo_305" data-name="Grupo 305">
                  <rect id="Rectángulo_133" data-name="Rectángulo 133" width="43.261" height="45.345" transform="translate(452.241 249.625)" fill="#4b9074" opacity="0.2"/>
                  <rect id="Rectángulo_134" data-name="Rectángulo 134" width="43.261" height="2.611" transform="translate(452.241 298.157)" fill="#8b9093" opacity="0.5"/>
                  <rect id="Rectángulo_135" data-name="Rectángulo 135" width="43.261" height="1.415" transform="translate(452.241 303.471)" fill="#8b9093" opacity="0.2"/>
                  <rect id="Rectángulo_136" data-name="Rectángulo 136" width="43.26" height="2.611" transform="translate(512.109 298.157)" fill="#8b9093" opacity="0.5"/>
                  <rect id="Rectángulo_137" data-name="Rectángulo 137" width="43.26" height="1.415" transform="translate(512.109 303.471)" fill="#8b9093" opacity="0.2"/>
                  <rect id="Rectángulo_138" data-name="Rectángulo 138" width="43.26" height="2.611" transform="translate(512.109 366.853)" fill="#8b9093" opacity="0.5"/>
                  <rect id="Rectángulo_139" data-name="Rectángulo 139" width="43.26" height="1.416" transform="translate(512.109 372.167)" fill="#8b9093" opacity="0.2"/>
                  <rect id="Rectángulo_140" data-name="Rectángulo 140" width="43.261" height="2.611" transform="translate(452.241 366.853)" fill="#8b9093" opacity="0.5"/>
                  <rect id="Rectángulo_141" data-name="Rectángulo 141" width="43.261" height="1.416" transform="translate(452.241 372.167)" fill="#8b9093" opacity="0.2"/>
                  <path id="Trazado_395" data-name="Trazado 395" d="M486.585,285.744h4.081s-2.435-8.363-3.652-13.351c-1.8-14.257-4.116-16.432-4.465-16.682,0-.011.015-.032.015-.032l-4.1-1.125c-1.536,1.9-4.535,1.688-4.535,1.688s-3,.211-4.536-1.688l-4.1,1.125s.015.032.035.081c-.062-.054-.1-.081-.1-.081s-2.566,1.268-4.511,16.714c-1.216,4.988-3.648,13.351-3.648,13.351h4.078s4.531-9.334,5.077-17.025c1.187,3.629,1.482,5.117,1.482,7.073,0,1.6-1.272,6.362-2.119,10.252,2.779.03,5.557.075,8.336.089s5.554-.005,8.333-.1c-.847-3.889-2.117-8.651-2.117-10.245,0-1.9.28-3.359,1.381-6.757C482.176,276.662,486.585,285.744,486.585,285.744Z" fill="#e8564b"/>
                </g>
                <g id="Grupo_306" data-name="Grupo 306">
                  <rect id="Rectángulo_142" data-name="Rectángulo 142" width="43.26" height="45.345" transform="translate(512.109 249.625)" fill="#4b9074" opacity="0.2"/>
                  <path id="Trazado_396" data-name="Trazado 396" d="M546.452,285.744h4.081s-2.435-8.363-3.652-13.351a93.669,93.669,0,0,0-1.685-9.822c-1.492.056-2.754.126-3.613-.813-1.618-1.764-.814-4.358-1.329-6.642l-1.918-.562c-1.536,1.9-4.535,1.688-4.535,1.688s-3,.211-4.535-1.688l-2.4.66c-.072,2.913.309,4.885-.956,6.455-1.044,1.291-2.165,1.425-3.759,1.482-.523,2.306-1.059,5.313-1.553,9.242-1.217,4.988-3.649,13.351-3.649,13.351h4.079s4.531-9.334,5.076-17.025c1.188,3.629,1.483,5.117,1.483,7.073,0,1.6-1.273,6.362-2.12,10.252,2.78.03,5.557.075,8.336.089s5.554-.005,8.333-.1c-.846-3.889-2.117-8.651-2.117-10.245,0-1.9.28-3.359,1.381-6.757C542.043,276.662,546.452,285.744,546.452,285.744Z" fill="#e07500"/>
                </g>
              </g>
              <g id="Grupo_326" data-name="Grupo 326">
                <g id="Grupo_310" data-name="Grupo 310" opacity="0.2">
                  <g id="Grupo_309" data-name="Grupo 309">
                    <g id="Grupo_308" data-name="Grupo 308">
                      <rect id="Rectángulo_143" data-name="Rectángulo 143" width="43.261" height="45.344" transform="translate(452.241 318.17)" fill="#4b9074"/>
                    </g>
                  </g>
                </g>
                <g id="Grupo_317" data-name="Grupo 317">
                  <g id="Grupo_313" data-name="Grupo 313">
                    <g id="Grupo_312" data-name="Grupo 312">
                      <g id="Grupo_311" data-name="Grupo 311">
                        <path id="Trazado_397" data-name="Trazado 397" d="M487.853,354.657c-5.579,2.126-23.38,1.859-27.033-.134C460.222,352,467,327.162,467,327.162a20.591,20.591,0,0,0,13.018.13C483.2,336.59,486.258,349.211,487.853,354.657Z" fill="#fdc100"/>
                      </g>
                    </g>
                  </g>
                  <g id="Grupo_316" data-name="Grupo 316">
                    <g id="Grupo_315" data-name="Grupo 315">
                      <g id="Grupo_314" data-name="Grupo 314">
                        <path id="Trazado_398" data-name="Trazado 398" d="M480.86,329.847c-.28-.871-.562-1.729-.845-2.555a20.591,20.591,0,0,1-13.018-.13s-.158.744-.664,2.654A40.259,40.259,0,0,0,480.86,329.847Z" fill="#e07500"/>
                      </g>
                    </g>
                  </g>
                </g>
                <g id="Grupo_320" data-name="Grupo 320" opacity="0.2">
                  <g id="Grupo_319" data-name="Grupo 319">
                    <g id="Grupo_318" data-name="Grupo 318">
                      <rect id="Rectángulo_144" data-name="Rectángulo 144" width="43.26" height="45.344" transform="translate(512.109 318.17)" fill="#4b9074"/>
                    </g>
                  </g>
                </g>
                <g id="Grupo_325" data-name="Grupo 325">
                  <g id="Grupo_323" data-name="Grupo 323">
                    <g id="Grupo_322" data-name="Grupo 322">
                      <g id="Grupo_321" data-name="Grupo 321">
                        <path id="Trazado_399" data-name="Trazado 399" d="M548.428,354.657c-5.58,2.126-23.38,1.859-27.033-.134-.6-2.523,6.177-27.361,6.177-27.361a20.59,20.59,0,0,0,13.018.13C543.779,336.59,546.834,349.211,548.428,354.657Z" fill="#e07500"/>
                      </g>
                    </g>
                  </g>
                  <g id="Grupo_324" data-name="Grupo 324">
                    <path id="Trazado_400" data-name="Trazado 400" d="M541.435,329.847c-.28-.871-.561-1.729-.845-2.555a20.59,20.59,0,0,1-13.018-.13s-.157.744-.664,2.654A40.259,40.259,0,0,0,541.435,329.847Z" fill="#cd4945"/>
                  </g>
                </g>
              </g>
            </g>
            <path id="Trazado_401" data-name="Trazado 401" d="M571.256,150.522v5.017h-134.9v-5.017a14.92,14.92,0,0,1,14.791-15h21.729v5.625a5.74,5.74,0,0,0,5.692,5.779h48.579a5.734,5.734,0,0,0,5.692-5.779v-5.625h23.629A14.918,14.918,0,0,1,571.256,150.522Z" fill="#e07500"/>
          </g>
          <g id="Grupo_329" data-name="Grupo 329">
            <path id="Trazado_402" data-name="Trazado 402" d="M488.694,138.622a2.008,2.008,0,1,1-2.009-2.008A2.009,2.009,0,0,1,488.694,138.622Z"/>
            <path id="Rectángulo_145" data-name="Rectángulo 145" d="M1.76,0h27.4a1.761,1.761,0,0,1,1.761,1.761v.515a1.76,1.76,0,0,1-1.76,1.76H1.76A1.76,1.76,0,0,1,0,2.276V1.76A1.76,1.76,0,0,1,1.76,0Z" transform="translate(491.387 136.614)"/>
          </g>
          <path id="Rectángulo_146" data-name="Rectángulo 146" d="M.931,0H37.654a.93.93,0,0,1,.93.93V1.2a.93.93,0,0,1-.93.93H.93A.93.93,0,0,1,0,1.2V.931A.931.931,0,0,1,.931,0Z" transform="translate(484.717 405.341)"/>
        </g>
        <g id="Grupo_332" data-name="Grupo 332">
          <g id="Grupo_331" data-name="Grupo 331">
            <path id="Trazado_403" data-name="Trazado 403" d="M438.15,203.083H411.828l24.635-47.539h19.283Z" fill="#fdc100"/>
            <path id="Trazado_404" data-name="Trazado 404" d="M464.471,203.083H438.15l17.6-47.539h19.283Z" fill="#fff"/>
            <path id="Trazado_405" data-name="Trazado 405" d="M490.793,203.083H464.471l10.558-47.539h19.283Z" fill="#fdc100"/>
            <path id="Trazado_406" data-name="Trazado 406" d="M517.115,203.083H490.793l3.52-47.539H513.6Z" fill="#fff"/>
            <path id="Trazado_407" data-name="Trazado 407" d="M543.436,203.083H517.115L513.6,155.544h19.282Z" fill="#fdc100"/>
            <path id="Trazado_408" data-name="Trazado 408" d="M569.758,203.083H543.436l-10.558-47.539h19.283Z" fill="#fff"/>
            <path id="Trazado_409" data-name="Trazado 409" d="M596.08,203.083H569.758l-17.6-47.539h19.283Z" fill="#fdc100"/>
          </g>
          <path id="Trazado_410" data-name="Trazado 410" d="M424.989,221.558h0a13.16,13.16,0,0,1-13.161-13.16v-5.315H438.15V208.4A13.161,13.161,0,0,1,424.989,221.558Z" fill="#f08c02"/>
          <path id="Trazado_411" data-name="Trazado 411" d="M451.31,221.558h0a13.161,13.161,0,0,1-13.16-13.16v-5.315h26.321V208.4A13.16,13.16,0,0,1,451.31,221.558Z" fill="#ffccc0"/>
          <path id="Trazado_412" data-name="Trazado 412" d="M477.632,221.558h0a13.161,13.161,0,0,1-13.161-13.16v-5.315h26.322V208.4A13.161,13.161,0,0,1,477.632,221.558Z" fill="#f08c02"/>
          <path id="Trazado_413" data-name="Trazado 413" d="M503.954,221.558h0a13.161,13.161,0,0,1-13.161-13.16v-5.315h26.322V208.4A13.161,13.161,0,0,1,503.954,221.558Z" fill="#ffccc0"/>
          <path id="Trazado_414" data-name="Trazado 414" d="M530.276,221.558h0a13.16,13.16,0,0,1-13.161-13.16v-5.315h26.321V208.4A13.161,13.161,0,0,1,530.276,221.558Z" fill="#f08c02"/>
          <path id="Trazado_415" data-name="Trazado 415" d="M556.6,221.558h0a13.161,13.161,0,0,1-13.16-13.16v-5.315h26.322V208.4A13.16,13.16,0,0,1,556.6,221.558Z" fill="#ffccc0"/>
          <path id="Trazado_416" data-name="Trazado 416" d="M582.918,221.558h0a13.16,13.16,0,0,1-13.16-13.16v-5.315H596.08V208.4A13.161,13.161,0,0,1,582.918,221.558Z" fill="#f08c02"/>
        </g>
        <g id="Grupo_334" data-name="Grupo 334">
          <path id="Trazado_417" data-name="Trazado 417" d="M603.42,418.242H558.176a6.859,6.859,0,0,1-6.833-7.435l4.92-58.324A6.859,6.859,0,0,1,563.1,346.2h35.4a6.858,6.858,0,0,1,6.833,6.282l4.92,58.324A6.858,6.858,0,0,1,603.42,418.242Z" fill="#f08c02"/>
          <path id="Trazado_418" data-name="Trazado 418" d="M599.3,418.242H548.938a4.5,4.5,0,0,1-4.489-4.882l5.319-63.034a4.5,4.5,0,0,1,4.487-4.125h39.731a4.5,4.5,0,0,1,4.487,4.125l5.319,63.034A4.5,4.5,0,0,1,599.3,418.242Z" fill="#fdc100"/>
          <g id="Grupo_333" data-name="Grupo 333">
            <path id="Trazado_419" data-name="Trazado 419" d="M587.243,348.694h-1.13v-3.859a12.7,12.7,0,1,0-25.4,0v3.859h-1.129v-3.859a13.832,13.832,0,1,1,27.664,0Z" fill="#3d3e3f"/>
          </g>
        </g>
        <g id="Grupo_336" data-name="Grupo 336">
          <path id="Trazado_420" data-name="Trazado 420" d="M560.51,418.242H523.154a3.492,3.492,0,0,1-3.479-3.785l3.952-46.842a3.491,3.491,0,0,1,3.479-3.2h29.452a3.491,3.491,0,0,1,3.479,3.2l3.952,46.842A3.491,3.491,0,0,1,560.51,418.242Z" fill="#cd4945"/>
          <path id="Trazado_421" data-name="Trazado 421" d="M554.906,418.242H519.5a4.386,4.386,0,0,1-4.37-4.754l3.8-45.053a4.385,4.385,0,0,1,4.37-4.017H551.1a4.386,4.386,0,0,1,4.371,4.017l3.8,45.053A4.386,4.386,0,0,1,554.906,418.242Z" fill="#e8564b"/>
          <g id="Grupo_335" data-name="Grupo 335">
            <path id="Trazado_422" data-name="Trazado 422" d="M547,366.279h-.842V363.4a9.492,9.492,0,0,0-18.984,0v2.882h-.842V363.4a10.334,10.334,0,1,1,20.668,0Z" fill="#3d3e3f"/>
          </g>
        </g>
      </g>
      <g id="Grupo_340" data-name="Grupo 340">
        <path id="Trazado_423" data-name="Trazado 423" d="M650.005,122.983H599.341a6.4,6.4,0,0,0-6.377,6.377v25.766a6.4,6.4,0,0,0,6.377,6.376h5.813c-.95,3.219-2.552,6.72-5.194,8.143,6.027-.431,11.66-5.2,14.592-8.143h35.453a6.394,6.394,0,0,0,6.376-6.376V129.36A6.4,6.4,0,0,0,650.005,122.983Z" fill="#fdc100"/>
        <g id="Grupo_339" data-name="Grupo 339">
          <g id="Grupo_338" data-name="Grupo 338">
            <path id="Trazado_424" data-name="Trazado 424" d="M627.376,146.906a2.422,2.422,0,0,0-.6-1.724A5.454,5.454,0,0,0,624.73,144a24.135,24.135,0,0,1-2.484-1.076,7.9,7.9,0,0,1-1.792-1.228,4.909,4.909,0,0,1-1.163-1.631,5.462,5.462,0,0,1-.419-2.233,4.957,4.957,0,0,1,1.424-3.661,6.029,6.029,0,0,1,3.792-1.668l0-2.828H626.2v2.868a5.516,5.516,0,0,1,3.661,1.946,6.427,6.427,0,0,1,1.325,4.2l-3.819,0a3.644,3.644,0,0,0-.656-2.372,2.16,2.16,0,0,0-1.752-.785,2.216,2.216,0,0,0-1.676.616,2.329,2.329,0,0,0-.594,1.7,2.234,2.234,0,0,0,.582,1.612,6.413,6.413,0,0,0,2.16,1.24,23.85,23.85,0,0,1,2.6,1.2,7.476,7.476,0,0,1,1.718,1.267,4.911,4.911,0,0,1,1.072,1.612,5.571,5.571,0,0,1,.372,2.107,4.936,4.936,0,0,1-1.4,3.648,6.148,6.148,0,0,1-3.858,1.655l0,2.629-2.1,0v-2.617a6.349,6.349,0,0,1-4.2-1.92,6.191,6.191,0,0,1-1.49-4.339l3.818,0a3.514,3.514,0,0,0,.749,2.41,2.723,2.723,0,0,0,2.148.839,2.625,2.625,0,0,0,1.837-.616A2.139,2.139,0,0,0,627.376,146.906Z" fill="#fff"/>
          </g>
        </g>
      </g>
      <g id="Grupo_343" data-name="Grupo 343">
        <path id="Rectángulo_147" data-name="Rectángulo 147" d="M6.376,0H46.4a6.377,6.377,0,0,1,6.377,6.377V25.682A6.377,6.377,0,0,1,46.4,32.059H6.376A6.376,6.376,0,0,1,0,25.683V6.376A6.376,6.376,0,0,1,6.376,0Z" transform="translate(401.765 244.346) rotate(180)" fill="#e8564b"/>
        <g id="Grupo_342" data-name="Grupo 342">
          <g id="Grupo_341" data-name="Grupo 341">
            <path id="Trazado_425" data-name="Trazado 425" d="M385.555,228.317a2.861,2.861,0,1,0,2.861-2.861A2.86,2.86,0,0,0,385.555,228.317Z" fill="#fff"/>
            <path id="Trazado_426" data-name="Trazado 426" d="M372.574,228.317a2.86,2.86,0,1,0,2.859-2.861A2.859,2.859,0,0,0,372.574,228.317Z" fill="#fff"/>
            <path id="Trazado_427" data-name="Trazado 427" d="M359.591,228.317a2.861,2.861,0,1,0,2.862-2.861A2.861,2.861,0,0,0,359.591,228.317Z" fill="#fff"/>
          </g>
        </g>
        <path id="Trazado_428" data-name="Trazado 428" d="M390.557,238.959s.869,9.731,5.387,12.164c-7.3-.521-13.9-8.688-13.9-8.688" fill="#e8564b"/>
      </g>
      <g id="Grupo_378" data-name="Grupo 378">
        <g id="Grupo_376" data-name="Grupo 376">
          <g id="Grupo_345" data-name="Grupo 345">
            <path id="Trazado_429" data-name="Trazado 429" d="M348.073,307.49c2.153-.279,2.352-2.322,3.318-3.975a44.913,44.913,0,0,1,3.7-5.711c1.361-1.677,2.923-3.283,3.609-5.33a13.048,13.048,0,0,0,.442-4.571,21.325,21.325,0,0,0-1.368-7.792c-.62-1.442-1.517-2.766-2-4.259-1.177-3.6-.019-7.668.489-11.287.521-3.694.372-7.524-1.416-10.88a3.715,3.715,0,0,0-1.369-1.566,9.748,9.748,0,0,0-2.559-1.19c-3.772-1.153-8.119-1.366-10.939,1.6-.737.775-1.479,1.556-2.146,2.391a14.524,14.524,0,0,0-1.047,1.479c-1.559,2.548-2.1,5.564-3.02,8.406-1.172,3.625-2.716,6.769-5.685,9.155a19.761,19.761,0,0,0-7.741,16.149,20.7,20.7,0,0,0,4.376,12.192,6.278,6.278,0,0,0,2.691,2.212c2.7.949,5.889-.209,8.65.481a21.384,21.384,0,0,1,3.151,1.272A17.109,17.109,0,0,0,348.073,307.49Z" fill="#284d3b"/>
            <g id="Grupo_344" data-name="Grupo 344">
              <path id="Trazado_430" data-name="Trazado 430" d="M359.754,308.708c.021.034-.959.518-.938.552,1.842,3.011,4.928,5.45,7.181,8.163a95.732,95.732,0,0,0,8.518,7.787c1.227.951,1.909,2.937,2.663,4.322a6.348,6.348,0,0,0,3.786,3.151,9.406,9.406,0,0,0,2.813.259l1.481-.013a3.054,3.054,0,0,0,1.4-.235,1.051,1.051,0,0,0,.59-1.181,1.619,1.619,0,0,0-.793-.756,6.131,6.131,0,0,1-2.681-2.679c-.475-1.127.512-2.229-.656-3.225a7.574,7.574,0,0,0-2.534-1.091c-2.841-.994-4.011-4.86-5.45-7.232-1.725-2.845-6.348-10.372-10.243-14.178C359.59,297.169,359.754,308.708,359.754,308.708Z" fill="#ffccc0"/>
              <path id="Trazado_431" data-name="Trazado 431" d="M375.138,316.53c-1.725-2.845-6.348-10.372-10.243-14.178-5.3-5.183-5.141,6.356-5.141,6.356.021.034-.959.518-.938.552,1.842,3.011,4.928,5.45,7.181,8.163a88.98,88.98,0,0,0,7.758,7.165,29.757,29.757,0,0,0,3.577-3.936C376.686,319.462,375.736,317.515,375.138,316.53Z" fill="#fdc100"/>
              <path id="Trazado_432" data-name="Trazado 432" d="M348.846,278.606s.175,12.81,8.943,28.98c3.009,6.269,8.366,4.927,7.5-5-1.152-13.152-3.281-19.659-7.489-23.048S348.846,278.606,348.846,278.606Z" fill="#fdc100"/>
            </g>
            <path id="Trazado_433" data-name="Trazado 433" d="M335.564,326.687s0,14.983,8.64,21.96c6.83,5.516,16.109,21.159,16.109,21.159s1.966,4.057,6.552,1.6,5.477-4.276-.032-19.626c-5.453-15.194-10.916-27-20.322-35.757S335.564,326.687,335.564,326.687Z" fill="#cd4945"/>
            <path id="Trazado_434" data-name="Trazado 434" d="M374.939,416.834a2.965,2.965,0,0,0,2.283-.884,2.725,2.725,0,0,1,.327-.455,1.209,1.209,0,0,1,.664-.254c1.758-.244,3.467.561,5.2.934a10.807,10.807,0,0,0,4.445.022,2.193,2.193,0,0,0,.523-.157,1.305,1.305,0,0,0,.453-1.885,2.622,2.622,0,0,0-1.25-.738,29.711,29.711,0,0,1-6.767-3.546,13.414,13.414,0,0,0-1.307-.863,7.665,7.665,0,0,1-1.053-.464A40.679,40.679,0,0,1,377.136,403c-1.259-7.594-2.175-15.037-3.851-22.551-.808-3.622-1.669-7.246-2.8-10.783-.609-1.911-1.246-4.511-2.753-5.955-4.59-4.4-8.622,4.189-8.622,4.189s1.373,9.642,8.282,24.4c3.728,7.962,2.754,13.309,3.687,17.262a30.84,30.84,0,0,1,.589,4.334,4.719,4.719,0,0,0,.475,2.2c.267.391.485.333.884.45A4.76,4.76,0,0,0,374.939,416.834Z" fill="#ffccc0"/>
            <path id="Trazado_435" data-name="Trazado 435" d="M395.053,414.321a3.157,3.157,0,0,0-.29-.216,6.323,6.323,0,0,0-2.408-.826c-1.284-.228-2.708-.112-3.923-.643-1.274-.556-2.631-.76-3.873-1.364a22.6,22.6,0,0,1-2.1-1.009,19.762,19.762,0,0,0-1.97-1.184c-.228-.107-1.393-.768-1.626-.587a9.72,9.72,0,0,1-7.691,2.128c.26,2.367.007,4.688.43,7.049h7.416c.017-.4.035-.8.052-1.2a2.543,2.543,0,0,0,1.372.63,41.448,41.448,0,0,0,9.025.721,29.738,29.738,0,0,0,3.23-.117,14.846,14.846,0,0,0,2.418-.472,1.316,1.316,0,0,0,.778-.445,1.035,1.035,0,0,0,.146-.581A2.547,2.547,0,0,0,395.053,414.321Z" fill="#3d3e3f"/>
            <path id="Trazado_436" data-name="Trazado 436" d="M369.621,362.863c-4.975-3.957-10.6,3.986-10.6,3.986s-.163,6.671,5.9,25.8c2.365,7.458,4.212,12.457,5.178,16.334,2.751-.141,4.934-.978,7.709-1.7C377.616,405.982,372.453,365.115,369.621,362.863Z" fill="#cd4945"/>
            <path id="Trazado_437" data-name="Trazado 437" d="M336.561,322.95s-6.969,6.545-7.343,15.317,1.5,10.9-1.594,26.346c-.332,1.653-1.478,4.258,3.5,5.765s8.331,1.488,14.046-13.566c4.088-10.764,11.133-27.191,10.671-40.031S336.561,322.95,336.561,322.95Z" fill="#e8564b"/>
            <path id="Trazado_438" data-name="Trazado 438" d="M329.392,363.679s-8.153,5.415-13.7,20.736a92.787,92.787,0,0,1-4.773,11.014c-1.063,2.054-1.875,4.234-3.057,6.225-1.07,1.806-3.275,3.378-3.371,5.619-.122,2.876,10.306,11.675,14.189,11.84s5.318.785,4.841-1.539-4.9-2.2-6.365-5-4.915-8.369-4.915-8.369,26.347-31.038,26.213-37.393S329.392,363.679,329.392,363.679Z" fill="#ffccc0"/>
            <path id="Trazado_439" data-name="Trazado 439" d="M318.527,412.48a51.632,51.632,0,0,0-3.761-5.793c-3.273-.221-6.582-.918-7.178-4.615a16.738,16.738,0,0,0-3.225,2.853c-.911,1.16-.741,2.647-1.626,3.7a1.308,1.308,0,0,0-.325.487c-.112.429.311.79.673,1.048a14.521,14.521,0,0,1,3.581,3.644c.177.261.468.564.75.42.991-.5.64-.677,1.651-.128,1.174.637,2.258,1.656,3.417,2.364,1.782,1.087,4.032,2.56,6.193,2.652,3.882.166,5.994.785,5.517-1.539S319.993,415.28,318.527,412.48Z" fill="#3d3e3f"/>
            <path id="Trazado_440" data-name="Trazado 440" d="M339.214,365.837c-.133-6.355-9.3-3.658-9.3-3.658s-9.035,6.849-14.583,22.168c-1.365,3.765-5.047,11.476-7.486,16.82-.009.021-.01.528-.023.548,2.292,1.378,3.507,1.055,5.88,2.156C316.865,399.537,339.339,371.706,339.214,365.837Z" fill="#e8564b"/>
            <path id="Trazado_441" data-name="Trazado 441" d="M344.628,275.93c-.005,0-12.133.147-13.5,8.97a28.5,28.5,0,0,0,1.5,15.6c1.77,4.461,3.389,12.4,1.854,17.119-1.476,4.531-3.739,8.924-4.871,13.586a26.534,26.534,0,0,0-.781,9.046,27.294,27.294,0,0,0,11.519-.528c2.955-.809,5.765-2.093,8.739-2.834a35.151,35.151,0,0,1,7.771-.816,16.824,16.824,0,0,1,3.55.033c.853.175,1.376.981,1.691-.478a13.664,13.664,0,0,0-.29-2.607,34.083,34.083,0,0,0-1.41-7.648c-1.028-3.809-2.664-7.722-2.817-11.639s-.223-8.063,1.444-11.7c1.358-2.96,3.5-5.931,3.2-9.346-.211-2.361-1.592-4.357-2.852-6.287a24.992,24.992,0,0,1-2.775-6.169,2.679,2.679,0,0,0-1.727-1.886,20.482,20.482,0,0,0-4.836-1.773A23.756,23.756,0,0,0,344.628,275.93Z" fill="#f08c02"/>
            <path id="Trazado_442" data-name="Trazado 442" d="M334.089,279.359a5.323,5.323,0,0,0-3.1,5.124c.167,4.254,1.463,13.8,8.717,26.6,3.439,6.834,8.078,3.587,6.738-7.3-1.716-13.936-2.605-19.918-7.3-23.561A4.738,4.738,0,0,0,334.089,279.359Z" fill="#fdc100"/>
            <path id="Trazado_443" data-name="Trazado 443" d="M382.612,329.627a8.191,8.191,0,0,1,2.465-.377,2.47,2.47,0,0,1,2.048,1.1,1.893,1.893,0,0,1-.41,2.339,2.784,2.784,0,0,1-1.9.374c-1.6-.083-4.02-.048-5.273-1.134C377.663,330.306,381.522,329.91,382.612,329.627Z" fill="#ffccc0"/>
            <path id="Trazado_444" data-name="Trazado 444" d="M343.694,275.953a25.032,25.032,0,0,0,5.74,4.348c2.548,1.231,5.115,1.041,4.461-1.574a4.952,4.952,0,0,0-3.067-2.692s-.719-4.816-.215-7.351c-4.082-1.4-5.747-.527-5.747-.527S344.889,275.32,343.694,275.953Z" fill="#ffccc0"/>
            <path id="Trazado_445" data-name="Trazado 445" d="M350.614,268.684c-4.083-1.4-5.748-.527-5.748-.527s.006,1.783-.137,3.648a12.5,12.5,0,0,0,5.9,2.611A22.631,22.631,0,0,1,350.614,268.684Z" fill="#ffccc0" style="mix-blend-mode: multiply;isolation: isolate"/>
            <path id="Trazado_446" data-name="Trazado 446" d="M354.293,261.218a8.517,8.517,0,0,1,.912,3.075,15.037,15.037,0,0,1-.413,5.734c-.738,2.442-3.331,3.5-5.706,3.309a9.175,9.175,0,0,1-4.308-1.56c-1.2-.8-3.426-2.368-3.205-4.023.11-.828.859-1.39,1.484-1.945a9.8,9.8,0,0,0,2.744-4.1c.454-1.309.724-2.967,2.094-3.675a4.155,4.155,0,0,1,1.765-.341,4.855,4.855,0,0,1,1.941.2,4.554,4.554,0,0,1,2.136,2.258C353.939,260.521,354.125,260.873,354.293,261.218Z" fill="#ffccc0"/>
          </g>
          <g id="Grupo_375" data-name="Grupo 375">
            <g id="Grupo_346" data-name="Grupo 346">
              <path id="Trazado_447" data-name="Trazado 447" d="M421.335,410.373a7.533,7.533,0,1,1-7.534-7.533A7.533,7.533,0,0,1,421.335,410.373Z" fill="#666"/>
              <path id="Trazado_448" data-name="Trazado 448" d="M420.3,410.373a6.5,6.5,0,1,1-6.5-6.5A6.5,6.5,0,0,1,420.3,410.373Z" fill="#fff"/>
              <path id="Trazado_449" data-name="Trazado 449" d="M417.359,410.373a3.558,3.558,0,1,1-3.558-3.558A3.557,3.557,0,0,1,417.359,410.373Z" fill="#8b9093"/>
            </g>
            <g id="Grupo_374" data-name="Grupo 374">
              <g id="Grupo_348" data-name="Grupo 348">
                <path id="Trazado_450" data-name="Trazado 450" d="M481.272,395.021H446.245a5.31,5.31,0,0,1-5.291-5.756l3.81-45.153a5.309,5.309,0,0,1,5.29-4.863h27.408a5.308,5.308,0,0,1,5.291,4.863l3.81,45.153A5.309,5.309,0,0,1,481.272,395.021Z" fill="#f08c02"/>
                <path id="Trazado_451" data-name="Trazado 451" d="M478.085,395.021H439.092a3.486,3.486,0,0,1-3.474-3.78l4.117-48.8a3.486,3.486,0,0,1,3.475-3.193h30.758a3.487,3.487,0,0,1,3.475,3.193l4.116,48.8A3.486,3.486,0,0,1,478.085,395.021Z" fill="#fdc100"/>
                <g id="Grupo_347" data-name="Grupo 347">
                  <path id="Trazado_452" data-name="Trazado 452" d="M468.747,341.177h-.874v-2.986a9.834,9.834,0,0,0-19.669,0v2.986h-.873v-2.986a10.708,10.708,0,0,1,21.416,0Z" fill="#3d3e3f"/>
                </g>
              </g>
              <g id="Grupo_350" data-name="Grupo 350">
                <path id="Trazado_453" data-name="Trazado 453" d="M451.682,395.021H421.3a2.84,2.84,0,0,1-2.829-3.078l3.215-38.1a2.84,2.84,0,0,1,2.83-2.6h23.954a2.838,2.838,0,0,1,2.829,2.6l3.216,38.1A2.841,2.841,0,0,1,451.682,395.021Z" fill="#cd4945"/>
                <path id="Trazado_454" data-name="Trazado 454" d="M447.124,395.021h-28.8a3.567,3.567,0,0,1-3.555-3.867l3.092-36.645a3.567,3.567,0,0,1,3.554-3.267h22.618a3.567,3.567,0,0,1,3.554,3.267l3.092,36.645A3.567,3.567,0,0,1,447.124,395.021Z" fill="#e8564b"/>
                <g id="Grupo_349" data-name="Grupo 349">
                  <path id="Trazado_455" data-name="Trazado 455" d="M440.7,352.756h-.688v-2.343a7.719,7.719,0,1,0-15.438,0v2.343h-.687v-2.343a8.406,8.406,0,1,1,16.813,0Z" fill="#3d3e3f"/>
                </g>
              </g>
              <g id="Grupo_373" data-name="Grupo 373">
                <g id="Grupo_371" data-name="Grupo 371">
                  <g id="Grupo_369" data-name="Grupo 369">
                    <g id="Grupo_351" data-name="Grupo 351">
                      <path id="Trazado_456" data-name="Trazado 456" d="M478.5,396.846H419.733a11.592,11.592,0,0,1-11.391-9.465l-7.63-40.977H507.289l-18.1,43.322A11.558,11.558,0,0,1,478.5,396.846ZM403,348.307l7.21,38.726a9.688,9.688,0,0,0,9.521,7.91H478.5a9.659,9.659,0,0,0,8.934-5.95l17-40.686Z" fill="#666"/>
                    </g>
                    <g id="Grupo_368" data-name="Grupo 368">
                      <g id="Grupo_360" data-name="Grupo 360">
                        <g id="Grupo_359" data-name="Grupo 359">
                          <g id="Grupo_352" data-name="Grupo 352">
                            <rect id="Rectángulo_148" data-name="Rectángulo 148" width="1.903" height="49.497" transform="translate(406.388 346.366) rotate(-9.538)" fill="#666"/>
                          </g>
                          <g id="Grupo_353" data-name="Grupo 353">
                            <rect id="Rectángulo_149" data-name="Rectángulo 149" width="1.903" height="48.975" transform="translate(421.105 346.286) rotate(-4.669)" fill="#666"/>
                          </g>
                          <g id="Grupo_354" data-name="Grupo 354">
                            <rect id="Rectángulo_150" data-name="Rectángulo 150" width="48.813" height="1.903" transform="translate(435.601 395.016) rotate(-89.735)" fill="#666"/>
                          </g>
                          <g id="Grupo_355" data-name="Grupo 355">
                            <rect id="Rectángulo_151" data-name="Rectángulo 151" width="49.015" height="1.903" transform="matrix(0.091, -0.996, 0.996, 0.091, 446.111, 394.934)" fill="#666"/>
                          </g>
                          <g id="Grupo_356" data-name="Grupo 356">
                            <rect id="Rectángulo_152" data-name="Rectángulo 152" width="49.576" height="1.904" transform="translate(456.641 394.856) rotate(-79.954)" fill="#666"/>
                          </g>
                          <g id="Grupo_357" data-name="Grupo 357">
                            <rect id="Rectángulo_153" data-name="Rectángulo 153" width="50.483" height="1.902" transform="translate(467.159 394.777) rotate(-75.213)" fill="#666"/>
                          </g>
                          <g id="Grupo_358" data-name="Grupo 358">
                            <rect id="Rectángulo_154" data-name="Rectángulo 154" width="51.72" height="1.902" transform="translate(477.69 394.705) rotate(-70.69)" fill="#666"/>
                          </g>
                        </g>
                      </g>
                      <g id="Grupo_367" data-name="Grupo 367">
                        <g id="Grupo_361" data-name="Grupo 361">
                          <rect id="Rectángulo_155" data-name="Rectángulo 155" width="98.545" height="1.903" transform="translate(403.42 354.799)" fill="#666"/>
                        </g>
                        <g id="Grupo_362" data-name="Grupo 362">
                          <rect id="Rectángulo_156" data-name="Rectángulo 156" width="94.889" height="1.904" transform="translate(404.593 360.884)" fill="#666"/>
                        </g>
                        <g id="Grupo_363" data-name="Grupo 363">
                          <rect id="Rectángulo_157" data-name="Rectángulo 157" width="91.234" height="1.903" transform="translate(405.765 366.969)" fill="#666"/>
                        </g>
                        <g id="Grupo_364" data-name="Grupo 364">
                          <rect id="Rectángulo_158" data-name="Rectángulo 158" width="87.58" height="1.903" transform="translate(406.936 373.055)" fill="#666"/>
                        </g>
                        <g id="Grupo_365" data-name="Grupo 365">
                          <rect id="Rectángulo_159" data-name="Rectángulo 159" width="83.926" height="1.903" transform="translate(408.107 379.141)" fill="#666"/>
                        </g>
                        <g id="Grupo_366" data-name="Grupo 366">
                          <rect id="Rectángulo_160" data-name="Rectángulo 160" width="80.271" height="1.903" transform="translate(409.279 385.226)" fill="#666"/>
                        </g>
                      </g>
                    </g>
                    <path id="Trazado_457" data-name="Trazado 457" d="M507.025,348.306H401.14a2.1,2.1,0,0,1-2.1-2.1h0a2.1,2.1,0,0,1,2.1-2.1H507.025a2.1,2.1,0,0,1,2.1,2.1h0A2.1,2.1,0,0,1,507.025,348.306Z" fill="#3d3e3f"/>
                  </g>
                  <g id="Grupo_370" data-name="Grupo 370">
                    <path id="Trazado_458" data-name="Trazado 458" d="M484.156,402.207H415.617a12.7,12.7,0,0,1-12.341-9.946L389.992,331.17H374.084a1.9,1.9,0,1,1,0-3.8H393.06L407,391.452a8.874,8.874,0,0,0,8.621,6.95h68.539a1.9,1.9,0,0,1,0,3.8Z" fill="#3d3e3f"/>
                  </g>
                </g>
                <g id="Grupo_372" data-name="Grupo 372">
                  <path id="Trazado_459" data-name="Trazado 459" d="M475.614,410.373a7.532,7.532,0,1,1-7.531-7.533A7.532,7.532,0,0,1,475.614,410.373Z" fill="#666"/>
                  <path id="Trazado_460" data-name="Trazado 460" d="M474.584,410.373a6.5,6.5,0,1,1-6.5-6.5A6.5,6.5,0,0,1,474.584,410.373Z" fill="#fff"/>
                  <path id="Trazado_461" data-name="Trazado 461" d="M471.64,410.373a3.558,3.558,0,1,1-3.557-3.558A3.558,3.558,0,0,1,471.64,410.373Z" fill="#8b9093"/>
                </g>
              </g>
            </g>
          </g>
        </g>
        <g id="Grupo_377" data-name="Grupo 377">
          <path id="Trazado_462" data-name="Trazado 462" d="M341.468,313.538c5.442,3.571,13.477,9.546,27.453,12.9,1.313.315,1.611,2.155,2.786,2.813.78.435,1.573.278,1.9,1.333a1.548,1.548,0,0,1-.154,1.294.212.212,0,0,0-.055.165c.022.09.133.125.222.137,2.1.29,4.179-.3,4.912-2.349a11.165,11.165,0,0,0,.486-2.612,2.832,2.832,0,0,0-1.647-2.951,10.849,10.849,0,0,0-2.846-.752,8.7,8.7,0,0,1-3.737-1.422c-1.226-.951-2.48-1.867-3.741-2.765-4.009-2.86-15.671-13.366-20.371-14.619C340.438,303.044,341.468,313.538,341.468,313.538Z" fill="#ffccc0"/>
          <path id="Trazado_463" data-name="Trazado 463" d="M370.793,322.093c-1.226-.951-2.48-1.867-3.741-2.765-4.009-2.86-16.04-13.83-20.74-15.084-6.244-1.664-4.844,9.294-4.844,9.294,5.442,3.571,13.477,9.546,27.453,12.9a.771.771,0,0,1,.088.036,16.993,16.993,0,0,0,2.292-4.061A5.521,5.521,0,0,1,370.793,322.093Z" fill="#fdc100"/>
        </g>
      </g>
    </g>
  </g>
</svg>
